<?xml version="1.0"?>
<svg width="1024" height="1024" xmlns="http://www.w3.org/2000/svg" xmlns:svg="http://www.w3.org/2000/svg">
 <defs>
  <linearGradient id="gradient_0" x1="0.48" x2="0.55" y1="-0.14" y2="0.97">
   <stop offset="0" stop-color="#009CB6"/>
   <stop offset="1" stop-color="#03C2DB"/>
  </linearGradient>
 </defs>
 <g class="layer">
  <title>Flowtide</title>
  <g id="svg_18" transform="translate(50 0) translate(0.913818 0.463531) matrix(1.4562 0 0 1.4562 -293.117 -226.932)">
   <path d="m568.95,509.87c1.78,-2.72 4.28,-5.23 6.33,-7.78c6.48,-8.1 10.92,-16.28 13.55,-26.34c1.71,-6.53 2.11,-13.44 4.22,-19.85c5.76,-17.48 15.39,-6.69 21.78,-9.86c-0.32,18.58 -8.5,32.93 -21.66,45.7c-6.44,6.27 -15.73,15.24 -24.22,18.13z" fill="#5DE9F3" id="svg_2"/>
   <path d="m429,320.84c10.05,-2.64 17.16,-5.83 27.13,-0.2q0.53,0.3 1.04,0.62q0.51,0.33 1.01,0.68q0.49,0.35 0.97,0.72q0.48,0.38 0.94,0.78q0.46,0.39 0.9,0.81q0.43,0.42 0.85,0.86q0.41,0.45 0.81,0.91q0.39,0.46 0.76,0.94q0.37,0.48 0.72,0.98q0.35,0.5 0.67,1.01q0.32,0.52 0.61,1.05q0.29,0.53 0.56,1.07q0.27,0.55 0.51,1.11q0.24,0.55 0.45,1.12q0.21,0.57 0.39,1.15q0.19,0.58 0.34,1.16q0.17,0.63 0.32,1.25q0.14,0.63 0.25,1.27q0.11,0.63 0.19,1.27q0.07,0.64 0.12,1.29q0.04,0.64 0.06,1.28q0.01,0.65 -0.01,1.29q-0.02,0.65 -0.07,1.29q-0.05,0.64 -0.13,1.28q-0.08,0.64 -0.2,1.28q-0.11,0.63 -0.26,1.26q-0.14,0.63 -0.32,1.25q-0.18,0.62 -0.38,1.23q-0.21,0.61 -0.45,1.21q-0.24,0.59 -0.51,1.18q-0.27,0.59 -0.56,1.16q-0.3,0.57 -0.62,1.13q-0.33,0.55 -0.68,1.08q-0.35,0.53 -0.72,1.05q-0.38,0.51 -0.79,1.01q-0.4,0.49 -0.83,0.97q-0.42,0.47 -0.87,0.92q-0.45,0.45 -0.93,0.88q-0.47,0.43 -0.96,0.83q-0.5,0.41 -1.01,0.79q-0.51,0.37 -1.05,0.73q-0.53,0.35 -1.08,0.67q-0.54,0.33 -1.11,0.62q-0.56,0.3 -1.14,0.57q-0.58,0.26 -1.17,0.5q-0.6,0.24 -1.2,0.45q-0.6,0.21 -1.21,0.38q-0.62,0.18 -1.24,0.33c-6.62,1.56 -13.93,0.41 -19.69,-3.26c-5.54,-3.53 -9.15,-9.48 -10.5,-15.84c-0.88,-4.13 -0.55,-7.67 -0.55,-11.8c2.21,-6.44 5.56,-11.08 10.64,-15.57z" fill="#5DE9F3" id="svg_3"/>
   <path d="m393.21,318.23c-5.11,1.83 -10.02,3.02 -15.49,2.3c-6.73,-0.88 -12.57,-4.55 -16.64,-9.93q-0.41,-0.53 -0.78,-1.08q-0.38,-0.54 -0.73,-1.11q-0.35,-0.56 -0.67,-1.15q-0.32,-0.58 -0.61,-1.18q-0.29,-0.59 -0.55,-1.2q-0.27,-0.62 -0.49,-1.24q-0.24,-0.62 -0.43,-1.26q-0.2,-0.63 -0.37,-1.27q-0.16,-0.65 -0.3,-1.3q-0.13,-0.65 -0.23,-1.31q-0.1,-0.65 -0.17,-1.31q-0.07,-0.67 -0.11,-1.33q-0.03,-0.66 -0.03,-1.33q0,-0.66 0.03,-1.33q0.03,-0.66 0.1,-1.32q0.06,-0.66 0.16,-1.32q0.09,-0.65 0.21,-1.29q0.12,-0.64 0.27,-1.28q0.16,-0.63 0.34,-1.26q0.19,-0.63 0.41,-1.24q0.21,-0.62 0.46,-1.23q0.25,-0.6 0.53,-1.19q0.28,-0.59 0.59,-1.17q0.3,-0.58 0.64,-1.14q0.34,-0.56 0.71,-1.1q0.36,-0.54 0.75,-1.06q0.4,-0.53 0.82,-1.03q0.42,-0.5 0.86,-0.98q0.44,-0.48 0.91,-0.94q0.47,-0.46 0.96,-0.89q0.49,-0.43 1,-0.84q0.51,-0.41 1.04,-0.79q0.53,-0.36 1.07,-0.7q0.54,-0.33 1.1,-0.64q0.55,-0.31 1.12,-0.6q0.57,-0.28 1.16,-0.53q0.58,-0.26 1.18,-0.48q0.6,-0.23 1.2,-0.43q0.61,-0.19 1.22,-0.36q0.62,-0.17 1.24,-0.3q0.62,-0.14 1.25,-0.24q0.63,-0.11 1.26,-0.19q0.63,-0.07 1.27,-0.12q0.64,-0.04 1.27,-0.06q0.64,-0.01 1.28,0.01q0.63,0.01 1.27,0.06q0.63,0.05 1.27,0.13q0.63,0.08 1.26,0.19q0.68,0.13 1.35,0.29q0.68,0.16 1.34,0.35q0.66,0.2 1.32,0.42q0.65,0.23 1.29,0.49q0.65,0.26 1.27,0.56q0.63,0.29 1.24,0.61q0.62,0.33 1.21,0.68q0.6,0.36 1.17,0.74q0.58,0.39 1.13,0.8q0.56,0.41 1.09,0.85q0.54,0.45 1.05,0.91q0.51,0.47 1,0.96q0.49,0.49 0.95,1.01q0.46,0.52 0.89,1.06q0.44,0.53 0.85,1.09q0.4,0.57 0.78,1.15c4.76,7.21 4.16,15.21 2.41,23.2c7.18,6.21 15.01,11.45 22.84,16.8c-5.08,4.49 -8.43,9.13 -10.64,15.57c-7.86,-6.77 -16.43,-12.59 -25.15,-18.18z" fill="#00324E" id="svg_4"/>
   <path d="m587.08,288.11c-8.1,-5.76 -13.71,-13.55 -15.38,-23.5c-1.4,-8.4 0.19,-17.15 5.21,-24.11c4.95,-6.89 13.14,-11.82 21.51,-13.12q0.78,-0.11 1.56,-0.19q0.78,-0.08 1.56,-0.12q0.79,-0.03 1.57,-0.03q0.79,0 1.57,0.04q0.79,0.04 1.57,0.12q0.78,0.08 1.56,0.2q0.77,0.12 1.54,0.28q0.77,0.15 1.53,0.35q0.76,0.2 1.51,0.43q0.75,0.23 1.49,0.51q0.73,0.27 1.46,0.58q0.72,0.3 1.42,0.65q0.71,0.34 1.4,0.72q0.69,0.38 1.35,0.8q0.67,0.41 1.32,0.85q0.64,0.45 1.27,0.93q0.63,0.48 1.24,0.98q0.61,0.51 1.19,1.05q0.59,0.54 1.14,1.1q0.56,0.57 1.09,1.16q0.52,0.59 1.02,1.21q0.5,0.62 0.96,1.26q0.47,0.64 0.9,1.31q0.44,0.66 0.84,1.35q0.4,0.68 0.76,1.39q0.37,0.7 0.7,1.42q0.33,0.72 0.62,1.46q0.3,0.74 0.56,1.49q0.25,0.75 0.47,1.51q0.22,0.76 0.4,1.53q0.18,0.78 0.33,1.56q0.14,0.78 0.25,1.56q0.11,0.87 0.18,1.73q0.07,0.87 0.1,1.74q0.03,0.87 0.01,1.74q-0.01,0.88 -0.07,1.74q-0.06,0.87 -0.16,1.74q-0.1,0.86 -0.24,1.72q-0.15,0.86 -0.33,1.71q-0.19,0.85 -0.42,1.69q-0.22,0.84 -0.49,1.67q-0.27,0.83 -0.58,1.64q-0.31,0.82 -0.66,1.61q-0.35,0.8 -0.74,1.58q-0.39,0.78 -0.81,1.54q-0.43,0.76 -0.89,1.5q-0.47,0.73 -0.97,1.44q-0.5,0.72 -1.03,1.41c-2.14,2.72 -4.68,4.92 -7.43,7.01c-11.6,3.37 -21.41,3.79 -32.96,0.06z" fill="#5DE9F3" id="svg_5"/>
   <path d="m492.55,230.56c-10.16,-7.05 -17.93,-14.91 -20.24,-27.5c-1.9,-10.4 0.32,-21.74 6.39,-30.44q0.53,-0.74 1.09,-1.47q0.56,-0.72 1.16,-1.41q0.6,-0.69 1.23,-1.36q0.63,-0.66 1.29,-1.29q0.66,-0.63 1.36,-1.23q0.69,-0.6 1.41,-1.16q0.72,-0.57 1.47,-1.09q0.75,-0.53 1.52,-1.02q0.77,-0.49 1.57,-0.94q0.79,-0.45 1.61,-0.87q0.82,-0.41 1.65,-0.78q0.84,-0.37 1.69,-0.7q0.86,-0.33 1.73,-0.62q0.87,-0.29 1.75,-0.53q0.88,-0.25 1.77,-0.45q0.89,-0.2 1.8,-0.36c10.35,-1.84 21.47,0.38 30.04,6.57c8.3,6 13.81,15.51 15.29,25.61q0.14,0.99 0.23,1.98q0.08,0.99 0.12,1.98q0.04,0.99 0.03,1.98q-0.01,1 -0.07,1.99q-0.06,0.99 -0.17,1.98q-0.11,0.98 -0.26,1.97q-0.16,0.98 -0.36,1.95q-0.21,0.97 -0.46,1.93q-0.25,0.96 -0.55,1.91q-0.3,0.95 -0.64,1.88q-0.35,0.93 -0.74,1.84q-0.39,0.92 -0.82,1.81q-0.43,0.89 -0.91,1.76q-0.48,0.87 -1,1.72q-0.52,0.85 -1.08,1.67q-0.56,0.82 -1.16,1.61c-4,5.28 -9.12,8.74 -14.8,12.04c-11.75,3.45 -21.41,2.91 -32.94,-0.96z" fill="#5DE9F3" id="svg_6"/>
   <path d="m670.03,325.56c-4.38,-11.86 -5.28,-22.13 0.08,-33.89c4.27,-9.37 12.81,-16.99 22.47,-20.45c9.7,-3.47 21.23,-2.89 30.52,1.58q0.87,0.42 1.71,0.89q0.85,0.46 1.67,0.97q0.82,0.51 1.62,1.05q0.79,0.55 1.56,1.14q0.77,0.59 1.51,1.21q0.73,0.62 1.44,1.28q0.7,0.66 1.37,1.36q0.67,0.69 1.31,1.42q0.64,0.73 1.23,1.49q0.6,0.76 1.16,1.54q0.56,0.79 1.08,1.6q0.52,0.82 1,1.66q0.48,0.84 0.91,1.7q0.44,0.86 0.83,1.75q0.39,0.88 0.74,1.78q0.35,0.9 0.65,1.82q0.32,0.95 0.6,1.93q0.27,0.97 0.5,1.95q0.23,0.98 0.4,1.98q0.18,0.99 0.31,1.99q0.13,1.01 0.21,2.01q0.08,1.01 0.1,2.02q0.03,1.01 0.01,2.02q-0.03,1.01 -0.1,2.01q-0.07,1.01 -0.2,2.01q-0.12,1 -0.29,2q-0.18,1 -0.4,1.98q-0.22,0.99 -0.49,1.96q-0.28,0.97 -0.59,1.93q-0.32,0.95 -0.69,1.9q-0.37,0.94 -0.78,1.86q-0.42,0.92 -0.87,1.82q-0.43,0.84 -0.9,1.66q-0.47,0.82 -0.97,1.61q-0.51,0.79 -1.06,1.56q-0.55,0.77 -1.13,1.51q-0.58,0.74 -1.2,1.45q-0.62,0.71 -1.28,1.39q-0.65,0.68 -1.34,1.32q-0.69,0.65 -1.41,1.26q-0.71,0.61 -1.46,1.18q-0.75,0.57 -1.53,1.11q-0.77,0.53 -1.58,1.03q-0.8,0.5 -1.62,0.95q-0.83,0.46 -1.67,0.87q-0.85,0.42 -1.72,0.79q-0.86,0.37 -1.75,0.7q-0.88,0.33 -1.78,0.61c-6.92,2.22 -13.83,2.18 -21,1.62c-13.19,-5.61 -18.76,-10.24 -27.18,-21.89z" fill="#5DE9F3" id="svg_7"/>
   <path d="m492.55,230.56c11.53,3.87 21.19,4.41 32.94,0.96q-0.58,35.64 -0.22,71.29l0.22,35.35c0.09,14.36 1,29.6 -2.92,43.56c-2.64,9.38 -9.37,18.05 -16.26,24.74c-8.63,8.39 -18.4,15.73 -27.78,23.26q-17.41,13.95 -34.65,28.11c-7.72,6.24 -16.72,11.75 -22.94,19.56c-5.13,6.45 -8.65,14.22 -8.81,22.55q-0.02,0.71 0,1.43q0.01,0.71 0.07,1.42q0.05,0.72 0.14,1.43q0.09,0.71 0.22,1.41q0.13,0.7 0.29,1.4q0.16,0.69 0.36,1.38q0.19,0.69 0.43,1.36q0.23,0.68 0.49,1.34q0.27,0.67 0.57,1.31q0.3,0.65 0.63,1.29q0.33,0.63 0.7,1.25q0.36,0.61 0.76,1.21q0.39,0.59 0.82,1.17q0.42,0.57 0.87,1.12q0.46,0.56 0.94,1.09q0.48,0.53 0.98,1.03c3.23,3.26 7.04,5.64 10.98,7.93c2.58,-6.34 5.48,-11.76 9.9,-17.03c10.18,-12.14 23.88,-21.84 36.21,-31.67l64.8,-52.16c10.74,-8.63 22.88,-16.7 32.55,-26.51c4.15,-4.21 8.22,-9.4 10.1,-15.08c4.31,-13.08 2.25,-36.75 2.15,-50.94l-0.01,-47.01c11.55,3.73 21.36,3.31 32.96,-0.06c-1.03,26 -0.33,52.01 -0.03,78.02c16.4,-13.66 32.59,-28.17 50.02,-40.51c8.42,11.65 13.99,16.28 27.18,21.89c-16.76,12.74 -32.86,26.34 -49.23,39.56l-87.83,70.9l-49.57,39.92c-10.8,8.55 -22.34,16.68 -32.32,26.19c-3.73,3.55 -6.41,7.77 -8.43,12.49c27.8,-0.26 56.54,-4.3 81.76,-16.58c6.07,-2.95 11.61,-6.56 17.36,-10.06c8.49,-2.89 17.78,-11.86 24.22,-18.13c13.16,-12.77 21.34,-27.12 21.66,-45.7c0.09,-4.59 0.56,-9.1 3.2,-13c2.39,-3.52 6.26,-5.8 10.42,-6.54c4.02,-0.71 7.87,0.27 11.16,2.66c7.36,5.36 11.49,15.3 12.98,24.01c2.82,16.51 -3.23,32.49 -12.68,45.85c-25.84,36.56 -81.03,59.51 -124.02,66.75c-35.17,5.93 -85.4,6.91 -115.38,-14.71c-12.98,-9.36 -23.21,-23.65 -25.72,-39.67c-3.09,-19.68 4.44,-36.18 15.86,-51.66c-26,-17.09 -50.94,-35.71 -77.15,-52.52c-9.34,3.68 -19.19,5.23 -29.09,3.07c-10.73,-2.34 -19.67,-8.79 -25.55,-18.03q-0.59,-0.91 -1.13,-1.85q-0.54,-0.94 -1.03,-1.9q-0.5,-0.97 -0.94,-1.95q-0.45,-0.99 -0.84,-2q-0.4,-1.01 -0.75,-2.03q-0.34,-1.03 -0.64,-2.07q-0.29,-1.05 -0.53,-2.1q-0.24,-1.06 -0.43,-2.12q-0.19,-1.07 -0.32,-2.14q-0.14,-1.08 -0.22,-2.16q-0.09,-1.08 -0.11,-2.16q-0.03,-1.08 -0.01,-2.17q0.03,-1.08 0.11,-2.16q0.08,-1.08 0.21,-2.15q0.14,-1.08 0.32,-2.15q0.19,-1.06 0.43,-2.12c2.41,-10.48 8.98,-20.07 18.13,-25.79c9.9,-6.2 22.86,-7.98 34.17,-5.21c10.57,2.59 19.58,10.15 25.14,19.38c6.29,10.45 6.28,22.38 3.41,33.87c26.23,19.24 53.5,37 79.88,56.04c13.71,-11.72 27.96,-22.98 42.03,-34.27c8.03,-6.44 16.58,-12.67 23.85,-19.97c5.11,-5.13 9.3,-11.39 11.09,-18.47c4.13,-16.31 1.86,-36.9 1.84,-53.83l0.03,-80.21z" fill="#00324E" id="svg_8"/>
   <path d="m550.64,620.84c8.49,-1.81 16.05,-4.2 24.01,-6.58c18.05,-5.41 36.15,-11.96 53.3,-19.76c43.51,-19.78 97.35,-56 114.64,-102.58c6.2,-16.69 7.5,-34.48 -0.11,-50.94c-9.17,-19.86 -30.15,-32.3 -50.61,-37.64c-5.18,-1.35 -11.2,-0.99 -16.12,-2.98c-1.32,-0.53 -2.34,-1.23 -2.87,-2.63c-0.93,-2.47 -0.61,-6.57 0.49,-8.93c1.26,-2.73 3.7,-4.49 6.48,-5.48c14.7,-5.2 53.87,6.76 67.28,12.86c27.23,12.38 49.49,33.61 60.07,61.85c5.79,34.28 -0.32,59 -20.48,87.37c-34.02,47.88 -89.72,85.91 -142.77,109.55c-8.09,3.61 -16.31,7.13 -24.65,10.14c-6.65,2.4 -13.65,4.38 -20.13,7.18c-5.02,1 -10.11,2.91 -15.05,4.33q-13.8,4.02 -27.85,7.03c-55.28,11.7 -119.69,14.79 -174.22,-2.5c-32.9,-10.42 -66.42,-30.3 -82.58,-61.9q-0.5,-0.98 -0.98,-1.97q-0.48,-0.99 -0.93,-1.99q-0.46,-1 -0.89,-2.01q-0.43,-1.01 -0.83,-2.04q-0.4,-1.02 -0.78,-2.05q-0.38,-1.04 -0.74,-2.08q-0.35,-1.04 -0.68,-2.09q-0.32,-1.05 -0.62,-2.11q-0.3,-1.05 -0.58,-2.12q-0.27,-1.07 -0.52,-2.14q-0.25,-1.07 -0.47,-2.15q-0.22,-1.07 -0.41,-2.16q-0.2,-1.08 -0.37,-2.17q-0.17,-1.08 -0.31,-2.17q-0.14,-1.1 -0.25,-2.19q-0.11,-1.09 -0.2,-2.19q-0.09,-1.1 -0.15,-2.2q-0.05,-1.09 -0.09,-2.19q-0.03,-1.1 -0.03,-2.2q-0.01,-1.1 0.02,-2.2q0.02,-1.1 0.07,-2.2q0.05,-1.1 0.13,-2.2q0.07,-1.09 0.18,-2.19q0.1,-1.09 0.23,-2.19q0.14,-1.09 0.29,-2.18q0.16,-1.08 0.35,-2.17q0.18,-1.08 0.4,-2.16q0.21,-1.08 0.45,-2.15q0.24,-1.08 0.5,-2.14q0.27,-1.07 0.56,-2.13q0.29,-1.06 0.61,-2.12q0.32,-1.05 0.66,-2.09c8.41,-25.32 28.44,-43.89 51.79,-55.63c2.23,-1.75 4.03,-2.21 6.81,-2.58c-9.18,17.98 -12.14,38.43 -5.84,57.92c8.42,25.99 29.06,44.98 52.95,56.96c22.16,11.12 47.17,16.21 71.78,17.68q14.41,1.06 28.85,0.72q14.44,-0.34 28.78,-2.08c6.95,-0.79 14.42,-1.12 20.77,-2.98l0.66,-0.06z" fill="#00324E" id="svg_9"/>
   <path d="m423.03,650.57c-6.18,0.92 -13.92,-0.79 -20.06,-1.92c-28.57,-5.27 -52.58,-17.25 -69.31,-41.86c-13.36,-19.65 -15.71,-40.54 -11.41,-63.49l0.18,0.68c2.14,8.84 1.66,18.15 3.64,27.03c5.73,25.64 28.24,48.08 49.86,61.43q3.55,2.21 7.24,4.16q3.7,1.94 7.53,3.61q3.83,1.67 7.77,3.05q3.94,1.39 7.97,2.48c5.37,1.5 11.55,2.53 16.59,4.83z" fill="#009CBD" id="svg_10"/>
   <path d="m345.88,495.26c2.23,-1.75 4.03,-2.21 6.81,-2.58c-9.18,17.98 -11.86,38.43 -5.56,57.92c8.42,25.99 29.34,44.15 53.23,56.13c22.16,11.12 47.73,16.77 72.34,18.24q13.3,1.34 27.74,1q14.44,-0.34 28.78,-2.08c6.95,-0.79 16.03,-2.33 20.77,-2.98l0.66,-0.06c-6.81,4.47 -17.42,7.96 -27.11,11.91c-9.69,3.95 -67.78,21.34 -100.5,17.82c-5.04,-2.3 -11.22,-3.33 -16.59,-4.83q-4.03,-1.09 -7.97,-2.48q-3.94,-1.38 -7.77,-3.05q-3.83,-1.67 -7.53,-3.61q-3.69,-1.95 -7.24,-4.16c-21.62,-13.35 -44.13,-35.79 -49.86,-61.43c-1.98,-8.88 -1.5,-18.19 -3.64,-27.03l-0.18,-0.68c2.85,-11.63 6.52,-23.34 12.68,-33.69c2.52,-4.23 9.76,-10.13 10.95,-14.35z" fill="#5DE9F3" id="svg_11"/>
   <path d="m799.14,587.26c0.87,-0.39 1.76,-0.78 2.67,-1.08q0.63,-0.21 1.27,-0.36q0.65,-0.15 1.31,-0.24q0.65,-0.08 1.32,-0.11q0.66,-0.02 1.32,0.03q0.66,0.04 1.32,0.15q0.65,0.1 1.29,0.27q0.65,0.18 1.27,0.41q0.62,0.23 1.21,0.52c3.61,1.81 6.12,5.06 7.34,8.86c2.42,7.57 0.3,16.47 -1.17,24.04q-0.93,4.86 -2.03,9.67q-1.1,4.82 -2.38,9.6q-1.28,4.77 -2.73,9.5q-1.46,4.72 -3.08,9.39q-1.63,4.67 -3.43,9.27q-1.79,4.61 -3.75,9.14q-1.97,4.54 -4.1,9q-2.12,4.46 -4.41,8.84c-37.56,70.89 -108.59,125.78 -184.83,149.03q-3.86,1.17 -7.76,2.24q-3.89,1.07 -7.81,2.05q-3.92,0.97 -7.87,1.85q-3.94,0.88 -7.9,1.66q-3.96,0.78 -7.95,1.47q-3.98,0.68 -7.97,1.27q-4,0.59 -8.01,1.07q-4.01,0.49 -8.03,0.88q-4.02,0.39 -8.05,0.69q-4.03,0.29 -8.06,0.48q-4.04,0.19 -8.08,0.29q-4.04,0.09 -8.08,0.09q-4.04,-0.01 -8.07,-0.11q-4.04,-0.11 -8.08,-0.31q-4.03,-0.2 -8.06,-0.51q-4.03,-0.3 -8.05,-0.7q-4.02,-0.4 -8.03,-0.9q-4,-0.5 -8,-1.09q-3.99,-0.6 -7.97,-1.29q-3.98,-0.7 -7.94,-1.49q-3.97,-0.79 -7.9,-1.68q-3.95,-0.89 -7.86,-1.88q-3.92,-0.98 -7.81,-2.06q-3.9,-1.08 -7.76,-2.26q-3.87,-1.18 -7.7,-2.45q-3.83,-1.27 -7.64,-2.63q-3.8,-1.36 -7.57,-2.82q-3.76,-1.46 -7.49,-3.01q-3.74,-1.54 -7.43,-3.18q-3.69,-1.64 -7.34,-3.37q-3.65,-1.73 -7.26,-3.55q-3.6,-1.82 -7.17,-3.73c-66.47,-35.5 -123.55,-95.85 -145.66,-168.91c-12.64,-41.76 -13.63,-89.52 7.57,-128.76c18.29,-33.85 50.93,-57.73 87.47,-68.56c9.56,-2.84 26.51,-8.35 35.52,-3.13c2.83,1.64 4.79,4.42 5.56,7.59c0.82,3.41 -0.44,6.15 -2.21,9.01l-0.36,0.56c5.19,-0.03 11.06,-0.68 15.1,3.26c2,1.94 3.08,4.6 4.12,7.14c-3.18,5.79 -7.32,10.98 -11.27,16.27c-2.78,0.37 -4.58,0.83 -6.81,2.58c-23.35,11.74 -43.38,30.31 -51.79,55.63q-0.34,1.04 -0.66,2.09q-0.32,1.06 -0.61,2.12q-0.29,1.06 -0.56,2.13q-0.26,1.06 -0.5,2.14q-0.24,1.07 -0.45,2.15q-0.22,1.08 -0.4,2.16q-0.19,1.09 -0.35,2.18q-0.15,1.08 -0.29,2.17q-0.13,1.1 -0.23,2.19q-0.11,1.1 -0.18,2.19q-0.08,1.1 -0.13,2.2q-0.05,1.1 -0.07,2.2q-0.03,1.1 -0.02,2.2q0,1.1 0.03,2.2q0.04,1.1 0.09,2.19q0.06,1.1 0.15,2.2q0.09,1.1 0.2,2.19q0.11,1.09 0.25,2.19q0.14,1.09 0.31,2.17q0.17,1.09 0.37,2.17q0.19,1.09 0.41,2.16q0.22,1.08 0.47,2.15q0.25,1.07 0.52,2.14q0.28,1.07 0.58,2.12q0.3,1.06 0.62,2.11q0.33,1.05 0.68,2.09q0.36,1.04 0.74,2.08q0.38,1.03 0.78,2.05q0.4,1.03 0.83,2.04q0.43,1.01 0.89,2.01q0.45,1 0.93,1.99q0.48,0.99 0.98,1.97c16.16,31.6 49.68,51.48 82.58,61.9c54.53,17.29 118.94,14.2 174.22,2.5q14.05,-3.01 27.85,-7.03c4.94,-1.42 10.03,-3.33 15.05,-4.33c6.48,-2.8 13.48,-4.78 20.13,-7.18c8.34,-3.01 16.56,-6.53 24.65,-10.14c53.05,-23.64 108.75,-61.67 142.77,-109.55c20.16,-28.37 26.27,-53.09 20.48,-87.37c11.26,10.54 16.33,35.11 16.8,49.93c0.6,18.76 -5.45,44.59 -14.31,61.25c-2.19,4.1 -10.2,14.55 -10.55,18.05z" fill="#00324E" id="svg_13"/>
   <path d="m347.85,748.18c56.54,22.73 113.3,28.35 173.74,22.43c71.58,-7.02 154.86,-38.16 209.61,-85.58c14.91,-12.91 27.48,-27.9 39.95,-43.09c-0.54,8.15 -5.08,16.29 -8.56,23.58c-15.27,32.02 -35.45,59.7 -62.22,83.14c-52.85,46.27 -115.88,68.13 -186.06,63.44c-33.28,-2.22 -67.65,-9.48 -98.33,-22.77c-13.97,-6.05 -27.64,-13.65 -40.79,-21.32c-7.68,-4.47 -20.33,-10.97 -25.99,-17.69c-0.56,-0.66 -0.94,-1.38 -1.35,-2.14z" fill="#024968" id="svg_14"/>
   <path d="m250.45,565.97c-0.18,10.43 -0.13,21.3 1.5,31.62c4.16,26.26 19.03,51.31 37.35,70.22c31.07,32.09 71.17,48.32 114.08,57.93c11.93,2.67 24.38,5.65 36.66,5.87c11.97,0.21 23.94,1.11 35.89,1.21q18.03,0.21 36,-1.26q17.97,-1.48 35.72,-4.62c3.89,-0.68 12.1,-1.47 15.19,-3.27c11.45,-1.16 31.08,-7.57 42.33,-11.09c53.32,-16.68 105.73,-43.19 148.8,-79.01c10.24,-8.52 19.61,-17.99 29.18,-27.24c-2.24,12.37 -4.94,24.99 -12,35.61c-12.47,15.19 -25.04,30.18 -39.95,43.09c-54.75,47.42 -138.03,78.56 -209.61,85.58c-60.44,5.92 -117.2,0.3 -173.74,-22.43c-21.16,-10.98 -44.89,-36.85 -59.37,-55.87c-21.37,-28.06 -38.78,-64.17 -40.09,-99.98c-0.33,-9.09 0.84,-17.41 2.06,-26.36z" fill="url(#gradient_0)" id="svg_15"/>
   <path d="m775.79,620.98l0.28,0.17c-0.45,1.1 -0.16,0.68 -0.88,1.45c-5.86,6.28 -8.02,14.24 -17.05,16.63l-0.41,-0.52c0.34,-1.39 16.03,-15.72 18.06,-17.73z" fill="#009CBD" id="svg_16"/>
   <path d="m807.2,458.03c11.26,10.54 16.33,35.11 16.8,49.93c0.6,18.76 -5.45,44.59 -14.31,61.25c-2.19,4.1 -10.2,14.55 -10.55,18.05c-5.4,6.36 -11.1,12.28 -15.99,19.07c-9.57,9.25 -18.94,18.72 -29.18,27.24c-43.07,35.82 -95.48,62.33 -148.8,79.01c-11.25,3.52 -30.88,9.93 -42.33,11.09c-3.09,1.8 -11.3,2.59 -15.19,3.27q-17.75,3.14 -35.72,4.62q-17.97,1.47 -36,1.26c-11.95,-0.1 -23.92,-1 -35.89,-1.21c-12.28,-0.22 -24.73,-3.2 -36.66,-5.87c-42.91,-9.61 -83.01,-25.84 -114.08,-57.93c-18.32,-18.91 -33.19,-43.96 -37.35,-70.22c-1.63,-10.32 -1.68,-21.19 -1.5,-31.62c0.61,-8.4 3.59,-17.62 6.69,-25.42c10.99,-27.67 34.31,-50.32 60.75,-63.42c8.71,-4.32 17.94,-7.26 26.85,-11.12c5.19,-0.03 11.06,-0.68 15.1,3.26c2,1.94 3.08,4.6 4.12,7.14c-3.18,5.79 -7.32,10.98 -11.27,16.27c-2.78,0.37 -4.58,0.83 -6.81,2.58c-23.35,11.74 -43.38,30.31 -51.79,55.63q-0.34,1.04 -0.66,2.09q-0.32,1.06 -0.61,2.12q-0.29,1.06 -0.56,2.13q-0.26,1.06 -0.5,2.14q-0.24,1.07 -0.45,2.15q-0.22,1.08 -0.4,2.16q-0.19,1.09 -0.35,2.18q-0.15,1.08 -0.29,2.17q-0.13,1.1 -0.23,2.19q-0.11,1.1 -0.18,2.19q-0.08,1.1 -0.13,2.2q-0.05,1.1 -0.07,2.2q-0.03,1.1 -0.02,2.2q0,1.1 0.03,2.2q0.04,1.1 0.09,2.19q0.06,1.1 0.15,2.2q0.09,1.1 0.2,2.19q0.11,1.09 0.25,2.19q0.14,1.09 0.31,2.17q0.17,1.09 0.37,2.17q0.19,1.09 0.41,2.16q0.22,1.08 0.47,2.15q0.25,1.07 0.52,2.14q0.28,1.07 0.58,2.12q0.3,1.06 0.62,2.11q0.33,1.05 0.68,2.09q0.36,1.04 0.74,2.08q0.38,1.03 0.78,2.05q0.4,1.03 0.83,2.04q0.43,1.01 0.89,2.01q0.45,1 0.93,1.99q0.48,0.99 0.98,1.97c16.16,31.6 49.68,51.48 82.58,61.9c54.53,17.29 118.94,14.2 174.22,2.5q14.05,-3.01 27.85,-7.03c4.94,-1.42 10.03,-3.33 15.05,-4.33c6.48,-2.8 13.48,-4.78 20.13,-7.18c8.34,-3.01 16.56,-6.53 24.65,-10.14c53.05,-23.64 108.75,-61.67 142.77,-109.55c20.16,-28.37 26.27,-53.09 20.48,-87.37z" fill="#5DE9F3" id="svg_17"/>
  </g>
 </g>
</svg>